<?xml version="1.0" encoding="UTF-8"?>
<svg id="Layer_2" data-name="Layer 2" xmlns="http://www.w3.org/2000/svg" viewBox="0 0 4805.98 3530.14">
  <g id="Layer_1-2" data-name="Layer 1">
    <path d="m3455.23,630.01c11.09-62.36,19.9-115.66,30.14-168.69,25.89-134.03,52.53-267.91,78.64-401.89C3574,8.14,3580.4-.02,3632.99,0c218.69.07,437.38,1.65,656.07,2.73,21.48.11,43.15,2.67,64.39.59,196.59-19.28,423.52,153.13,446.86,387.2,8.07,80.87,8.18,164.81-3.89,244.97-34.83,231.33-72.62,462.47-118.55,691.83-81.55,407.23-170.2,813.03-255.37,1219.54-26.8,127.92-49.17,256.84-78.99,384.03-16.37,69.86-37.5,140.12-67.82,204.9-95.45,203.94-250.97,326.26-483.76,328.92-269.48,3.08-538.99,3.45-808.5,3.75-57.4.06-62.92-8.29-52.35-67.82,24.56-138.3,50.5-276.36,75.47-414.59,4.85-26.86,6.79-54.25,11.8-81.07,7.49-40.08,21.1-52.91,62.22-57.21,25.17-2.63,50.7-2.56,76.07-2.54,91.79.08,183.58,1.07,275.36.94,175.47-.25,285.83-82.32,335.15-251.4,15.26-52.31,25.63-106.1,37.14-159.45,42.78-198.29,86.89-396.32,127.09-595.14,45.97-227.39,91.42-454.98,130.67-683.59,15.74-91.66,22.44-186.59,18.76-279.45-4.61-116.39-71.06-195.51-182.72-232.59-21.69-7.2-45.83-9.51-68.87-9.73-99.59-.94-199.2-.04-298.8-.34-20.99-.06-41.97-2.41-75.2-4.45Z"/>
    <path d="m2412.47,589.72l-.03.14-1.2,6.08-155.41,802.77-.88,4.63c-2.58,12.77-5.1,25.61-7.68,38.44-5.27,26.25-10.55,52.56-15.82,78.82-49.75,246.71-102.26,492.89-152.66,739.48-15.65,76.47-31.18,153.12-41.84,230.41-23.38,170.06-98.8,315.22-206.33,445.78-103.14,125.23-227.37,224.26-369.83,301.68-232.47,126.35-481.17,202.41-741.47,243.37-210.44,33.11-421.75,55.32-635.29,47.12-24.85-1-49.57-3.87-84.03-6.62,10.55-51.8,19.1-93.29,27.54-134.84,22.8-112.75,45.59-225.5,68.5-338.19,1.93-9.55,5.45-18.87,6.68-28.48,4.33-33.99,20.68-50.22,57.37-52.33,58.31-3.46,116.2-13.48,174.34-19.63,167.07-17.7,332.5-44.13,493.18-94.58,160.21-50.28,307.12-124.99,430.89-240.5,92.76-86.55,150.43-192.56,175.45-317.2,75.42-375.34,151.48-750.62,227.14-1125.95l.29-1.4.53-2.58.7-3.51.53-2.81,110.26-569.93.03-.14h639.04Z"/>
    <path d="m3431.46,15.11c-2.57,23.26-3.35,44.21-7.35,64.54-98.3,499.31-197.36,998.46-295.37,1497.83-60.09,306.16-118.7,612.6-177.96,918.92-57.43,296.83-114.72,593.68-172.36,890.46-13.57,69.87-16.03,71-88.14,72.23-165.86,2.84-331.71,6.41-497.58,8.76-24.43.35-48.94-4.33-80.09-7.33,12.13-65.26,22.27-124.08,34.06-182.57,71.72-355.59,144.05-711.05,215.67-1066.65,38.49-191.12,75.3-382.59,114.12-573.65,34.96-172.06,71.97-343.7,107.47-515.66,50.06-242.45,99.54-485.01,149.29-727.52,23.51-114.59,46.8-229.24,70.77-343.73,8.14-38.86,13.85-44.33,55.74-44.49,175.68-.65,351.37-.33,527.05.24,12.99.04,25.95,4.87,44.68,8.62Z"/>
    <polygon points="2435.09 466.66 2435.06 466.8 2419.24 548.72 1780.21 548.72 1796.08 466.8 1796.11 466.66 2435.09 466.66"/>
    <polygon points="2456.65 361.18 2444.2 425.66 1805.17 425.66 1817.67 361.18 2456.65 361.18"/>
    <polygon points="2477.1 255.7 2464.61 320.03 1825.63 320.03 1838.07 255.7 2477.1 255.7"/>
    <polygon points="2492.98 173.66 2485.06 214.4 1846.07 214.4 1853.95 173.66 2492.98 173.66"/>
    <polygon points="2509.98 85.76 2500.93 132.47 2500.9 132.64 1861.86 132.64 1861.89 132.47 1870.94 85.76 2509.98 85.76"/>
    <polygon points="2525.86 3.72 2517.95 44.62 1878.91 44.62 1886.82 3.72 2525.86 3.72"/>
    <polygon points="2500.93 132.47 2500.9 132.64 1861.86 132.64 1861.89 132.47 2500.93 132.47"/>
    <polygon points="2435.09 466.66 2435.06 466.8 1796.08 466.8 1796.11 466.66 2435.09 466.66"/>
    <polygon points="2412.47 589.72 2412.44 589.86 1773.4 589.86 1773.43 589.72 2412.47 589.72"/>
  </g>
</svg>