<svg xmlns="http://www.w3.org/2000/svg" xmlns:xlink="http://www.w3.org/1999/xlink" viewBox="0 0 1103.5 732.5"><defs><style>.cls-1{isolation:isolate;}.cls-2{fill:url(#radial-gradient);}.cls-3{fill:url(#linear-gradient);}.cls-4{mix-blend-mode:lighten;}.cls-5{fill:url(#linear-gradient-2);}.cls-6{fill:url(#linear-gradient-3);}.cls-7{fill:url(#linear-gradient-4);}.cls-8{fill:url(#linear-gradient-5);}.cls-9{fill:url(#linear-gradient-6);}.cls-10{fill:none;}.cls-11{fill:#b0b6d9;}.cls-12{fill:#c64747;}.cls-13{fill:url(#linear-gradient-7);}.cls-14{fill:url(#Sky);}.cls-15{fill:url(#linear-gradient-8);}.cls-16{fill:url(#Summer);}.cls-17{fill:url(#linear-gradient-9);}.cls-18{fill:url(#linear-gradient-10);}.cls-19{fill:url(#linear-gradient-11);}.cls-20{fill:url(#linear-gradient-12);}.cls-21{fill:url(#linear-gradient-13);}.cls-22{fill:url(#linear-gradient-14);}</style><radialGradient id="radial-gradient" cx="591.66" cy="217.22" r="126.33" gradientTransform="matrix(0.87, 0.52, 0.5, -0.9, -88.42, 107.71)" gradientUnits="userSpaceOnUse"><stop offset="0" stop-color="#fff"/><stop offset="1" stop-color="#7ac943"/></radialGradient><linearGradient id="linear-gradient" x1="506.63" y1="307.84" x2="767.14" y2="307.84" gradientTransform="matrix(0.87, 0.52, 0.5, -0.9, -218.67, 255.8)" gradientUnits="userSpaceOnUse"><stop offset="0" stop-color="#fff"/><stop offset="1" stop-color="#ed1e79"/></linearGradient><linearGradient id="linear-gradient-2" x1="789.47" y1="160.03" x2="664.43" y2="160.03" gradientUnits="userSpaceOnUse"><stop offset="0" stop-color="#f21667"/><stop offset="1" stop-color="#fbb03b"/></linearGradient><linearGradient id="linear-gradient-3" x1="870.5" y1="54.79" x2="775.34" y2="54.79" gradientUnits="userSpaceOnUse"><stop offset="0" stop-color="#3fff71"/><stop offset="1" stop-color="#7ac943"/></linearGradient><linearGradient id="linear-gradient-4" x1="52.36" y1="548.84" x2="334.12" y2="548.84" gradientTransform="matrix(-1, 0, 0, 1, 1122.5, 0)" gradientUnits="userSpaceOnUse"><stop offset="0" stop-color="#f21667"/><stop offset="0.62" stop-color="#79c7d9"/></linearGradient><linearGradient id="linear-gradient-5" x1="538.9" y1="610.44" x2="637.39" y2="610.44" gradientTransform="matrix(-1, 0, 0, 1, 1122.5, 0)" gradientUnits="userSpaceOnUse"><stop offset="0" stop-color="#c64747"/><stop offset="0.64" stop-color="#f7931e"/></linearGradient><linearGradient id="linear-gradient-6" x1="537.5" y1="686.63" x2="591.13" y2="686.63" gradientTransform="matrix(-1, 0, 0, 1, 1122.5, 0)" gradientUnits="userSpaceOnUse"><stop offset="0" stop-color="aqua"/><stop offset="0.1" stop-color="#03f6fb"/><stop offset="0.26" stop-color="#0bdcf1"/><stop offset="0.47" stop-color="#17b3e0"/><stop offset="0.57" stop-color="#1e9cd7"/><stop offset="0.87" stop-color="#0075be"/><stop offset="0.99" stop-color="#005b97"/></linearGradient><linearGradient id="linear-gradient-7" x1="481.73" y1="550.14" x2="558.58" y2="550.14" gradientTransform="matrix(-1, 0, 0, 1, 1113, -8)" gradientUnits="userSpaceOnUse"><stop offset="0" stop-color="#f21667"/><stop offset="1" stop-color="#641ed3"/></linearGradient><linearGradient id="Sky" x1="9.5" y1="662.28" x2="144.79" y2="662.28" gradientTransform="matrix(-1, 0, 0, 1, 1122.5, 0)" gradientUnits="userSpaceOnUse"><stop offset="0" stop-color="#cce0f4"/><stop offset="0.06" stop-color="#c3dcf2"/><stop offset="0.17" stop-color="#a9d2ee"/><stop offset="0.31" stop-color="#80c2e7"/><stop offset="0.46" stop-color="#47acde"/><stop offset="0.57" stop-color="#1e9cd7"/><stop offset="0.87" stop-color="#0075be"/><stop offset="0.99" stop-color="#005b97"/></linearGradient><linearGradient id="linear-gradient-8" x1="52.36" y1="575.18" x2="173.95" y2="575.18" gradientTransform="matrix(-1, 0, 0, 1, 1113, -8)" gradientUnits="userSpaceOnUse"><stop offset="0" stop-color="#04d9ff"/><stop offset="0.22" stop-color="#12cefd" stop-opacity="0.76"/><stop offset="0.6" stop-color="#2abaf9" stop-opacity="0.36"/><stop offset="0.87" stop-color="#39aef6" stop-opacity="0.1"/><stop offset="1" stop-color="#3fa9f5" stop-opacity="0"/></linearGradient><linearGradient id="Summer" x1="226.31" y1="589.15" x2="546.44" y2="589.15" gradientTransform="matrix(-1, 0, 0, 1, 1122.5, 0)" gradientUnits="userSpaceOnUse"><stop offset="0" stop-color="#fff"/><stop offset="0.09" stop-color="#ffedd8"/><stop offset="0.21" stop-color="#ffd5a7"/><stop offset="0.33" stop-color="#ffc17d"/><stop offset="0.46" stop-color="#ffb05b"/><stop offset="0.59" stop-color="#ffa340"/><stop offset="0.72" stop-color="#ff9a2d"/><stop offset="0.86" stop-color="#ff9522"/><stop offset="1" stop-color="#ff931e"/></linearGradient><linearGradient id="linear-gradient-9" x1="280.04" y1="554.48" x2="481.73" y2="554.48" gradientTransform="matrix(-1, 0, 0, 1, 1122.5, 0)" gradientUnits="userSpaceOnUse"><stop offset="0" stop-color="#79c7d9"/><stop offset="1" stop-color="#3c35f2"/></linearGradient><linearGradient id="linear-gradient-10" x1="357.5" y1="244.34" x2="526.42" y2="244.34" gradientTransform="matrix(-1, 0, 0, 1, 1122.5, 0)" gradientUnits="userSpaceOnUse"><stop offset="0" stop-color="aqua"/><stop offset="1" stop-color="#f291c7"/></linearGradient><linearGradient id="linear-gradient-11" x1="394.29" y1="364.84" x2="738.6" y2="364.84" xlink:href="#linear-gradient-6"/><linearGradient id="linear-gradient-12" x1="558.5" y1="388.96" x2="895.07" y2="388.96" gradientTransform="matrix(-1, 0, 0, 1, 1122.5, 0)" gradientUnits="userSpaceOnUse"><stop offset="0" stop-color="red"/><stop offset="1" stop-color="#fcee21"/></linearGradient><linearGradient id="linear-gradient-13" x1="761.81" y1="235.01" x2="1113" y2="235.01" gradientTransform="matrix(-1, 0, 0, 1, 1113, -8)" gradientUnits="userSpaceOnUse"><stop offset="0" stop-color="#3fa9f5"/><stop offset="1" stop-color="#f291c7"/></linearGradient><linearGradient id="linear-gradient-14" x1="559" y1="541.5" x2="794.36" y2="541.5" gradientTransform="matrix(-1, 0, 0, 1, 1122.5, 0)" gradientUnits="userSpaceOnUse"><stop offset="0" stop-color="#f7931e"/><stop offset="1" stop-color="#b3e7f2"/></linearGradient></defs><title>header_image</title><g class="cls-1"><g id="Layer_2" data-name="Layer 2"><rect class="cls-2" x="409.75" y="156.11" width="245.67" height="128.26" transform="translate(1094.43 136.68) rotate(150)"/><rect class="cls-3" x="371.84" y="245.84" width="229.93" height="128.13" transform="translate(1053.85 326.88) rotate(150)"/><g class="cls-4"><path class="cls-5" d="M789.47,113.08l-4.75,5.29L664.43,252l9.39-60.93.27-1.7L677,170.5l31.13-57.66L728.42,101h0l18.79-11,28.52-16.65,9.1-5.32Z" transform="translate(-9.5 -8)"/><polygon class="cls-6" points="870.5 4.5 779.97 105.08 775.34 60.05 870.5 4.5"/></g><path class="cls-7" d="M788.38,484.42l42.29,29.27,8.81,6.1,36.82,25.49,55.64,38.51,42.58,29.47,2.07-.76,93.55-34L948.55,537.87,896.19,520.4l-33.61-11.22L829.05,498Z" transform="translate(-9.5 -8)"/><path class="cls-8" d="M485.11,648.12l39.52-8.07,6.74,21.18,10.16-4.67h0L561,643.5l11.89-9.75.6-3.67,2.57-.52,7.54-10L580,608.5l-16-48.84Z" transform="translate(-9.5 -8)"/><path class="cls-9" d="M531.37,661.23,533.2,667l4.32,13.55h0l13.09,41.14L543,727.21l15.37,12.29H585l-1.29-.9L558.59,721l12.81-78.16,1.49-9.1L561,643.5l-19.46,13.06h0Z" transform="translate(-9.5 -8)"/><polygon class="cls-10" points="516.5 731.5 548.85 731.5 533.48 719.21 516.5 731.5"/><path class="cls-11" d="M635,715.79l1.27,7.12-15.15,11L618.28,736,612,740.5h59l-10.8-7.56-2.05-1.44-16.31-11.42,2-8.22,10-40.69v0l14.84-60.51,67.71-13.82,79.71,23.76,19.79,5.9,6.56,2,157.8,47,6.39,1.9,37.22,11.1L1085,700.75l28,8.35-26.51-18.35-8.73-6-83.08-57.5-17-11.74-3.19-2.21-42.58-29.47L876.3,545.28l-36.82-25.49-8.81-6.1-42.29-29.27L721,437.81,640.77,544,583.6,619.59l-7.54,10,10.13-2.07L618.11,621l.07.41Z" transform="translate(-9.5 -8)"/><path class="cls-12" d="M634.26,480.69l5.46,53.05,1,10.23L721,437.81c-1-.68-2-1.37-3-2.06l-24.72-17.11-3.75,0Z" transform="translate(-9.5 -8)"/><polygon class="cls-13" points="554.42 551.66 570.46 600.5 574.1 611.59 631.27 535.97 630.22 525.74 624.76 472.69 554.42 551.66"/></g><g id="colors"><path class="cls-14" d="M994.68,627.21l-17-11.74,22.55,60,6.39,1.9,37.22,11.1L1085,700.75l28,8.35-26.51-18.35-8.73-6Z" transform="translate(-9.5 -8)"/><polygon class="cls-15" points="1060.64 570.45 939.05 529.87 967.09 604.5 1060.64 570.45"/><path class="cls-16" d="M635,715.79l1.27,7.12-15.15,11L618.28,736,612,740.5h59l-10.8-7.56-2.05-1.44-16.31-11.42,2-8.22,10-40.69v0l14.84-60.51,67.71-13.82,79.71,23.76,22.63-28.31h0l37.56-47,19.89-24.88-33.61-11.22L829.05,498l-40.67-13.57L721,437.81,640.77,544,583.6,619.59l-7.54,10,10.13-2.07L618.11,621l.07.41Z" transform="translate(-9.5 -8)"/><path class="cls-17" d="M721,437.81,640.77,544l6.58,64,6.5,63.16,14.84-60.51,67.71-13.82,79.71,23.76,19.79,5.9,6.56,2-3.72-36.17h0l-7.08-68.88-1-9.69L829.05,498l-40.67-13.57Z" transform="translate(-9.5 -8)"/><path class="cls-18" d="M596.08,109.7l12.56,122.07,25.62,248.92,55.32-62,3.75,0L691,417.09l-8.49-5.87L644,384.6l20.43-132.34,9.39-60.86.27-1.7q1.45-9.45,2.91-18.87l31.13-57.6,8.2-15.17,11.88-22Q746.6,42,765,8L647.07,79Z" transform="translate(-9.5 -8)"/><path class="cls-19" d="M383.9,528.77l30.52,56.43,37.66,69.66,33-6.74,78.81-88.46,70.34-79,55.32-62.09,3.75,0L691,417l-8.49-5.87L644,384.5,664.43,252l9.39-60.93.27-1.7L677,170.5l31.13-57.66,8.2-15.18,11.88-22-1.1-.83L711,96.18,608.64,231.51,502.32,372.13h0l-75.6,100h0Z" transform="translate(-9.5 -8)"/><path class="cls-12" d="M583.6,619.59l-7.54,10,10.13-2.07Z" transform="translate(-9.5 -8)"/><polygon class="cls-12" points="516.5 731.5 548.85 731.5 533.48 719.21 516.5 731.5"/><path class="cls-20" d="M227.43,155.5l29.7,90.06q5.26,32.71,10.54,65.44,16.56,33.47,33.13,66.92l15.06,27.75,5.26,9.69L378.2,520.5l4.1,7.56.93,1.71,30.65,56.43,37.81,69.66,33.17-6.74L564,560.66,502.14,373.14h0l-48.82-148L443.4,198q-9.76,5.06-20.09,11-9.49,5.49-18.07,11l-20.88-15.58L361.06,187c-11-8.22-34.72-24.78-90.8-61.51l-5-3.43-26.45,23.36Z" transform="translate(-9.5 -8)"/><polygon class="cls-21" points="0 340.95 110.05 311.3 144.8 301.94 156.63 298.75 241.94 275.77 244.13 279.82 256.77 303.2 266.5 290.35 351.19 178.51 261.9 116.49 256.96 113.06 230.62 136.42 219.25 146.5 142.83 214.28 120.7 233.91 88.38 262.57 0 340.95"/><path class="cls-22" d="M563.5,560q-22-66.5-44-133l-191.36,1.13L450.5,656l34.61-7.88Z" transform="translate(-9.5 -8)"/></g></g></svg>