<svg xmlns="http://www.w3.org/2000/svg" xmlns:xlink="http://www.w3.org/1999/xlink" viewBox="0 0 202 202"><defs><style>.cls-1{fill:#0f222b;}.cls-2{fill:#fcfcfc;}.cls-3{fill:none;}.cls-4{fill:url(#linear-gradient);}.cls-5,.cls-7{opacity:0.16;}.cls-5{fill:url(#linear-gradient-2);}.cls-6{fill:url(#linear-gradient-3);}.cls-7{fill:url(#linear-gradient-4);}</style><linearGradient id="linear-gradient" x1="38.13" y1="147.07" x2="76.06" y2="147.07" gradientTransform="translate(121.34 2.98) rotate(45.25)" gradientUnits="userSpaceOnUse"><stop offset="0" stop-color="#9cd3d6"/><stop offset="1" stop-color="#66bfe2"/></linearGradient><linearGradient id="linear-gradient-2" x1="67.15" y1="138.01" x2="47.04" y2="158.12" gradientTransform="translate(122.05 3.28) rotate(45.25)" gradientUnits="userSpaceOnUse"><stop offset="0"/><stop offset="0.59" stop-color="#9cd3d6"/></linearGradient><linearGradient id="linear-gradient-3" x1="81.06" y1="74.71" x2="177.22" y2="74.71" gradientTransform="matrix(0.71, 0.71, -0.72, 0.7, 83.87, -62.61)" xlink:href="#linear-gradient"/><linearGradient id="linear-gradient-4" x1="95.85" y1="110.45" x2="174.43" y2="31.87" gradientTransform="matrix(0.72, 0.71, -0.73, 0.71, 76.01, -63.54)" gradientUnits="userSpaceOnUse"><stop offset="0"/><stop offset="0.16" stop-color="#9cd3d6"/><stop offset="0.47" stop-color="#9cd3d6"/><stop offset="0.61" stop-color="#fff"/><stop offset="0.74" stop-color="#9cd3d6"/></linearGradient></defs><title>Asset 14</title><g id="Layer_2" data-name="Layer 2"><g id="Layer_1-2" data-name="Layer 1"><rect class="cls-1" width="202" height="202"/><path class="cls-2" d="M116.2,166.7,175,107.9,109,42V77l31,30.8L109,137v37Z"/><line class="cls-3" x1="155" y1="124" x2="155" y2="124"/><rect class="cls-4" x="42.93" y="134.4" width="28.33" height="25.33" transform="translate(-87.54 84.08) rotate(-45.25)"/><rect class="cls-5" x="42.93" y="135.4" width="28.33" height="25.33" transform="translate(-88.25 84.37) rotate(-45.25)"/><rect class="cls-6" x="65.99" y="69.04" width="112.44" height="25.33" transform="translate(-21.85 110.97) rotate(-45.25)"/><rect class="cls-7" x="64.83" y="70.52" width="113.85" height="25.45" transform="translate(-23.08 111.1) rotate(-45.25)"/><path class="cls-2" d="M86.72,40.1,27,98.9,92,163V128L62.55,99,92,70V35Z"/></g></g></svg>