<svg xmlns="http://www.w3.org/2000/svg" viewBox="0 0 728 431.87"><defs><style>.cls-1{fill:#f6ae2d;}.cls-2{fill:#f46036;}.cls-3{fill:#98dfaf;}.cls-4{fill:#3d3d3f;}.cls-5{fill:#2b2b2b;}.cls-6{fill:#212121;}.cls-7{fill:#111;}.cls-8{fill:#8c8c8c;}.cls-9{fill:#f2f2f4;}.cls-10{fill:#fff;}</style></defs><title>Asset 4</title><g id="Layer_2" data-name="Layer 2"><g id="Layer_1-2" data-name="Layer 1"><path class="cls-1" d="M173.22,0h36.55A13.22,13.22,0,0,1,223,13.22V17a0,0,0,0,1,0,0H160a0,0,0,0,1,0,0V13.22A13.22,13.22,0,0,1,173.22,0Z"/><rect class="cls-2" y="16.87" width="728" height="415" rx="16.8"/><circle class="cls-1" cx="469.13" cy="224.37" r="194"/><circle class="cls-3" cx="469.13" cy="224.37" r="155.5"/><rect class="cls-4" x="369.75" y="139.75" width="199" height="169.25" rx="11.84"/><circle class="cls-5" cx="469.5" cy="224.5" r="73.5"/><circle class="cls-6" cx="469.5" cy="224.5" r="52.5"/><circle class="cls-7" cx="469.5" cy="224.5" r="35.5"/><circle class="cls-8" cx="469.5" cy="224.5" r="8.5"/><path class="cls-9" d="M174.25,49,79.75,79H76a15,15,0,0,1,0-30Z"/><path class="cls-10" d="M192,64a15,15,0,0,1-15,15H79.75l94.5-30H177a15,15,0,0,1,15,15Z"/></g></g></svg>